# Blender v3.3.1 OBJ File: ''
# www.blender.org
mtllib cube.mtl
o Cube.001
v 1.000000 1.000000 -1.000000
v -1.000000 1.000000 -1.000000
v -1.000000 1.000000 1.000000
v 1.000000 1.000000 1.000000
v 1.000000 -1.000000 1.000000
v -1.000000 -1.000000 1.000000
v -1.000000 -1.000000 -1.000000
v 1.000000 -1.000000 -1.000000
vt 0.666670 0.750093
vt 0.333400 0.750093
vt 0.333400 0.500047
vt 0.666670 0.500047
vt 0.666603 0.250852
vt 0.666603 0.499918
vt 0.333400 0.250852
vt 0.000717 0.749960
vt 0.334035 0.750025
vt 0.334121 0.500075
vt 0.000804 0.500010
vt 0.333400 0.250240
vt 0.666670 0.250240
vt 0.666670 0.000252
vt 0.333400 0.000252
vt 1.000267 0.749844
vt 0.666949 0.750157
vt 0.666533 0.500205
vt 0.999850 0.499892
vt 0.666646 1.000005
vt 0.666632 0.750018
vt 0.333363 0.749998
vt 0.333387 0.999974
vn 0.0000 1.0000 0.0000
vn 0.0000 -0.0000 1.0000
vn -1.0000 -0.0000 0.0000
vn 0.0000 -1.0000 -0.0000
vn 1.0000 0.0000 0.0000
vn 0.0000 0.0000 -1.0000
usemtl Material.001
s 1
f 1/1/1 2/2/1 3/3/1 4/4/1
f 5/5/2 4/6/2 3/3/2 6/7/2
f 6/8/3 3/9/3 2/10/3 7/11/3
f 7/12/4 8/13/4 5/14/4 6/15/4
f 8/16/5 1/17/5 4/18/5 5/19/5
f 7/20/6 2/21/6 1/22/6 8/23/6
